<svg xmlns="http://www.w3.org/2000/svg" viewBox="0 0 167.51 132.87"><defs><style>.cls-1{isolation:isolate;}.cls-2,.cls-4,.cls-5,.cls-7{mix-blend-mode:screen;}.cls-2{opacity:0.14;}.cls-3,.cls-7{fill:#c8225d;}.cls-3,.cls-4,.cls-6,.cls-7{fill-rule:evenodd;}.cls-4,.cls-6{fill:#eea335;}.cls-4{opacity:0.88;}.cls-5{opacity:0.65;}.cls-7{opacity:0.3;}</style></defs><g class="cls-1"><g id="Layer_2" data-name="Layer 2"><g id="Layer_1-2" data-name="Layer 1"><g class="cls-2"><polygon class="cls-3" points="36.22 47.56 42.24 47.56 6.02 110.29 0 110.29 36.22 47.56"/><polygon class="cls-3" points="51.26 47.56 57.27 47.56 21.05 110.29 15.04 110.29 51.26 47.56"/><polygon class="cls-3" points="66.29 47.56 72.31 47.56 36.09 110.29 30.07 110.29 66.29 47.56"/><polygon class="cls-3" points="81.33 47.56 87.35 47.56 51.13 110.29 45.12 110.29 81.33 47.56"/><polygon class="cls-3" points="96.37 47.56 102.38 47.56 66.16 110.29 60.16 110.29 96.37 47.56"/><polygon class="cls-3" points="111.41 47.56 117.42 47.56 81.21 110.29 75.19 110.29 111.41 47.56"/><polygon class="cls-3" points="126.44 47.56 132.46 47.56 96.25 110.29 90.23 110.29 126.44 47.56"/><polygon class="cls-3" points="141.49 47.56 147.5 47.56 111.28 110.29 105.27 110.29 141.49 47.56"/><polygon class="cls-3" points="156.52 47.56 162.53 47.56 126.32 110.29 120.3 110.29 156.52 47.56"/></g><polyline class="cls-3" points="34.94 28.7 5.95 78.92 1.13 78.92 30.13 28.7 34.94 28.7"/><polyline class="cls-3" points="46.98 28.7 17.98 78.92 13.17 78.92 42.16 28.7"/><polyline class="cls-3" points="59.02 28.7 30.02 78.92 25.2 78.92 54.2 28.7"/><polygon class="cls-4" points="167.51 40.33 144.23 80.66 127.48 80.66 150.76 40.33 127.48 0 144.23 0 167.51 40.33"/><g class="cls-5"><path class="cls-6" d="M99.66,45.45,87.93,65.78H86L97.72,45.45,86,25.13h2Zm-5.61,0L82.32,25.13H80.37L92.1,45.45,80.37,65.78h1.95Z"/></g><polygon class="cls-7" points="164.59 78.92 133.44 132.87 111.03 132.87 142.18 78.92 111.03 24.98 133.44 24.98 164.59 78.92"/></g></g></g></svg>