<svg xmlns="http://www.w3.org/2000/svg" viewBox="0 0 445.02 240.21"><defs><style>.cls-1{isolation:isolate;}.cls-10,.cls-11,.cls-12,.cls-13,.cls-14,.cls-2,.cls-4,.cls-6,.cls-7,.cls-8,.cls-9{mix-blend-mode:screen;}.cls-2,.cls-9{opacity:0.3;}.cls-11,.cls-13,.cls-3,.cls-6,.cls-9{fill:#c8225d;}.cls-10,.cls-11,.cls-13,.cls-15,.cls-3,.cls-5,.cls-6,.cls-8,.cls-9{fill-rule:evenodd;}.cls-11,.cls-4{opacity:0.14;}.cls-10,.cls-5,.cls-8{fill:#eea335;}.cls-10,.cls-14,.cls-6{opacity:0.88;}.cls-7,.cls-8{opacity:0.65;}.cls-12,.cls-13{opacity:0.48;}.cls-15,.cls-16{fill:#f36d4c;}</style></defs><g class="cls-1"><g id="Layer_1" data-name="Layer 1"><g class="cls-2"><path class="cls-3" d="M192.81,468.3l-10.58,18.32h-1.75l10.57-18.32L180.48,450h1.75Zm-5.06,0L177.18,450h-1.76L186,468.3l-10.57,18.32h1.76Z" transform="translate(-70.18 -278.08)"/></g><g class="cls-4"><polygon class="cls-3" points="219.71 57.8 222.35 57.8 206.45 85.33 203.81 85.33 219.71 57.8"/><polygon class="cls-3" points="226.31 57.8 228.94 57.8 213.05 85.33 210.41 85.33 226.31 57.8"/><polygon class="cls-3" points="232.9 57.8 235.54 57.8 219.65 85.33 217.01 85.33 232.9 57.8"/><polygon class="cls-3" points="239.5 57.8 242.14 57.8 226.25 85.33 223.61 85.33 239.5 57.8"/><polygon class="cls-3" points="246.1 57.8 248.74 57.8 232.85 85.33 230.21 85.33 246.1 57.8"/><polygon class="cls-3" points="252.7 57.8 255.34 57.8 239.45 85.33 236.81 85.33 252.7 57.8"/><polygon class="cls-3" points="259.3 57.8 261.94 57.8 246.05 85.33 243.41 85.33 259.3 57.8"/><polygon class="cls-3" points="265.9 57.8 268.54 57.8 252.65 85.33 250.01 85.33 265.9 57.8"/><polygon class="cls-3" points="272.5 57.8 275.14 57.8 259.25 85.33 256.61 85.33 272.5 57.8"/></g><g class="cls-4"><polygon class="cls-3" points="257.39 80.26 263.41 80.26 227.19 142.99 221.17 142.99 257.39 80.26"/><polygon class="cls-3" points="272.43 80.26 278.44 80.26 242.22 142.99 236.21 142.99 272.43 80.26"/><polygon class="cls-3" points="287.46 80.26 293.48 80.26 257.26 142.99 251.25 142.99 287.46 80.26"/><polygon class="cls-3" points="302.5 80.26 308.52 80.26 272.3 142.99 266.29 142.99 302.5 80.26"/><polygon class="cls-3" points="317.54 80.26 323.56 80.26 287.33 142.99 281.33 142.99 317.54 80.26"/><polygon class="cls-3" points="332.58 80.26 338.59 80.26 302.38 142.99 296.36 142.99 332.58 80.26"/><polygon class="cls-3" points="347.61 80.26 353.63 80.26 317.42 142.99 311.4 142.99 347.61 80.26"/><polygon class="cls-3" points="362.66 80.26 368.67 80.26 332.45 142.99 326.44 142.99 362.66 80.26"/><polygon class="cls-3" points="377.69 80.26 383.7 80.26 347.49 142.99 341.48 142.99 377.69 80.26"/></g><g class="cls-2"><polygon class="cls-3" points="301.04 172.58 302.73 172.58 292.55 190.22 290.86 190.22 301.04 172.58"/><polygon class="cls-3" points="305.27 172.58 306.96 172.58 296.77 190.22 295.08 190.22 305.27 172.58"/><polygon class="cls-3" points="309.5 172.58 311.19 172.58 301 190.22 299.31 190.22 309.5 172.58"/><polygon class="cls-3" points="313.73 172.58 315.42 172.58 305.23 190.22 303.54 190.22 313.73 172.58"/><polygon class="cls-3" points="317.95 172.58 319.65 172.58 309.46 190.22 307.77 190.22 317.95 172.58"/><polygon class="cls-3" points="322.18 172.58 323.88 172.58 313.69 190.22 312 190.22 322.18 172.58"/><polygon class="cls-3" points="326.41 172.58 328.1 172.58 317.92 190.22 316.23 190.22 326.41 172.58"/><polygon class="cls-3" points="330.64 172.58 332.33 172.58 322.15 190.22 320.46 190.22 330.64 172.58"/><polygon class="cls-3" points="334.87 172.58 336.56 172.58 326.38 190.22 324.69 190.22 334.87 172.58"/></g><polyline class="cls-5" points="70.3 125.2 116.34 45.45 123.99 45.45 77.94 125.2"/><polyline class="cls-5" points="89.41 125.2 135.46 45.45 143.1 45.45 97.06 125.2"/><polygon class="cls-5" points="154.57 45.45 162.22 45.45 116.17 125.2 108.53 125.2 154.57 45.45"/><polygon class="cls-5" points="173.69 45.45 181.33 45.45 135.29 125.2 127.65 125.2 173.69 45.45"/><polygon class="cls-5" points="192.8 45.45 200.45 45.45 154.41 125.2 146.77 125.2 192.8 45.45"/><polygon class="cls-5" points="211.91 45.45 219.56 45.45 173.53 125.2 165.88 125.2 211.91 45.45"/><polygon class="cls-5" points="231.03 45.45 238.68 45.45 192.65 125.2 185 125.2 231.03 45.45"/><polygon class="cls-5" points="250.16 45.45 257.79 45.45 211.76 125.2 204.11 125.2 250.16 45.45"/><polygon class="cls-5" points="269.27 45.45 276.91 45.45 230.88 125.2 223.23 125.2 269.27 45.45"/><polyline class="cls-3" points="420.94 94.42 391.95 144.64 387.13 144.64 416.13 94.42 420.94 94.42"/><polyline class="cls-3" points="432.98 94.42 403.99 144.64 399.17 144.64 428.17 94.42"/><polyline class="cls-3" points="445.02 94.42 416.02 144.64 411.21 144.64 440.2 94.42"/><polygon class="cls-6" points="388.69 40.33 365.4 80.66 348.65 80.66 371.93 40.33 348.65 0 365.4 0 388.69 40.33"/><g class="cls-7"><path class="cls-5" d="M391,323.54l-11.74,20.32h-1.94l11.73-20.32-11.73-20.33h1.94Zm-5.61,0-11.74-20.33h-1.94l11.73,20.33-11.73,20.32h1.94Z" transform="translate(-70.18 -278.08)"/></g><polyline class="cls-8" points="10.58 147.13 25.27 172.58 10.58 198.03"/><polyline class="cls-8" points="0 198.03 14.7 172.58 0 147.13"/><g class="cls-4"><path class="cls-3" d="M158.82,350.29l-36.28,62.84h-6l36.28-62.84-36.28-62.83h6Zm-17.35,0L105.2,287.46h-6l36.27,62.83L99.17,413.13h6Z" transform="translate(-70.18 -278.08)"/></g><polygon class="cls-9" points="194.36 25.13 190.23 32.29 182.97 32.29 187.1 25.13 182.97 17.98 190.23 17.98 194.36 25.13"/><polygon class="cls-10" points="292.09 135.7 242.51 221.6 206.82 221.6 256.42 135.7 206.82 49.81 242.51 49.81 292.09 135.7"/><polygon class="cls-11" points="113.93 136.24 92.17 173.94 76.5 173.94 98.27 136.24 76.5 98.54 92.17 98.54 113.93 136.24"/><polygon class="cls-9" points="385.76 78.92 354.61 132.87 332.2 132.87 363.35 78.92 332.2 24.98 354.61 24.98 385.76 78.92"/><g class="cls-12"><polygon class="cls-3" points="92.32 50.11 92.97 50.11 89.11 56.8 88.46 56.8 92.32 50.11"/><polygon class="cls-3" points="93.93 50.11 94.57 50.11 90.71 56.8 90.07 56.8 93.93 50.11"/><polygon class="cls-3" points="95.53 50.11 96.17 50.11 92.31 56.8 91.67 56.8 95.53 50.11"/><polygon class="cls-3" points="97.13 50.11 97.78 50.11 93.91 56.8 93.27 56.8 97.13 50.11"/><polygon class="cls-3" points="98.74 50.11 99.38 50.11 95.52 56.8 94.88 56.8 98.74 50.11"/><polygon class="cls-3" points="100.34 50.11 100.98 50.11 97.12 56.8 96.48 56.8 100.34 50.11"/><polygon class="cls-3" points="101.94 50.11 102.58 50.11 98.72 56.8 98.08 56.8 101.94 50.11"/><polygon class="cls-3" points="103.55 50.11 104.19 50.11 100.33 56.8 99.69 56.8 103.55 50.11"/><polygon class="cls-3" points="105.15 50.11 105.79 50.11 101.93 56.8 101.29 56.8 105.15 50.11"/></g><g class="cls-12"><path class="cls-3" d="M161.05,436.82,119,509.74h-7l42.1-72.92L112,363.9h7Zm-20.14,0L98.82,363.9h-7l42.1,72.92-42.1,72.92h7Z" transform="translate(-70.18 -278.08)"/></g><polygon class="cls-13" points="215.18 157.04 186.46 206.8 165.79 206.8 194.52 157.04 165.79 107.3 186.46 107.3 215.18 157.04"/><polygon class="cls-11" points="301.31 45.45 293.97 58.18 288.68 58.18 296.03 45.45 288.68 32.73 293.97 32.73 301.31 45.45"/><g class="cls-4"><polygon class="cls-5" points="262.76 196.7 264.04 196.7 256.32 210.08 255.03 210.08 262.76 196.7"/><polygon class="cls-5" points="265.96 196.7 267.25 196.7 259.52 210.08 258.24 210.08 265.96 196.7"/><polygon class="cls-5" points="269.17 196.7 270.45 196.7 262.73 210.08 261.45 210.08 269.17 196.7"/><polygon class="cls-5" points="272.38 196.7 273.66 196.7 265.94 210.08 264.65 210.08 272.38 196.7"/><polygon class="cls-5" points="275.58 196.7 276.87 196.7 269.14 210.08 267.86 210.08 275.58 196.7"/><polygon class="cls-5" points="278.79 196.7 280.07 196.7 272.35 210.08 271.07 210.08 278.79 196.7"/><polygon class="cls-5" points="282 196.7 283.28 196.7 275.56 210.08 274.27 210.08 282 196.7"/><polygon class="cls-5" points="285.2 196.7 286.49 196.7 278.76 210.08 277.48 210.08 285.2 196.7"/><polygon class="cls-5" points="288.41 196.7 289.69 196.7 281.97 210.08 280.69 210.08 288.41 196.7"/></g><g class="cls-2"><path class="cls-5" d="M252,435.13l-48,83.16h-8l48-83.16L196,352h8Zm-23,0L181,352h-8l48,83.16-48,83.16h8Z" transform="translate(-70.18 -278.08)"/></g><g class="cls-14"><path class="cls-15" d="M222.69,338" transform="translate(-70.18 -278.08)"/><line class="cls-16" x1="142.52" y1="80.66" x2="140.53" y2="80.66"/><line class="cls-16" x1="147.49" y1="80.66" x2="145.5" y2="80.66"/></g></g></g></svg>